<?xml version="1.0" encoding="UTF-8" standalone="no"?><svg width="1845.0" height="1050.0" viewBox="0 0 1845.0 1050.0" xmlns="http://www.w3.org/2000/svg" xmlns:xlink="http://www.w3.org/1999/xlink"><g><rect x="0" y="150.0" width="1845.0" height="150.0" fill="#d6efc7" /><rect x="0" y="450.0" width="1845.0" height="150.0" fill="#d6efc7" /><rect x="0" y="750.0" width="1845.0" height="150.0" fill="#d6efc7" /><rect x="0" y="1050.0" width="1845.0" height="150.0" fill="#d6efc7" /><g transform="translate(2.5000381469726562,-150.0)" ><rect x="23.0" y="1090.5" height="75.0" width="160.0" fill="#808080" /><rect x="20.0" y="1087.5" height="75.0" width="160.0" fill="#ffffff" stroke="#000000" stroke-width="1"  /><text x="100.0" y="1124.0" text-anchor="middle" font-size="9.75" font-family="Helvetica"  dominant-baseline="middle">commons-lang</text><text x="100.0" y="1135.0" text-anchor="middle" font-size="10.0" font-family="Helvetica"  dominant-baseline="middle">commons-lang</text><text x="100.0" y="1146.0" text-anchor="middle" font-size="10.0" font-family="Helvetica"  dominant-baseline="middle">2.3</text><g transform="translate(155.0,1095.5)"><g><path style="fill:#ffffff;fill-rule:evenodd;stroke:#000000;stroke-width:1;stroke-linecap:butt;stroke-linejoin:round;stroke-miterlimit:0;stroke-dasharray:none" d="m 11.945981,2.6898174 -0.01687,0.8509402 c 1.444873,0 2.608076,1.1632017 2.608076,2.6080755 V 17.374897 c 0,1.444874 -1.163203,2.608075 -2.608076,2.608075 H 3.8402971 c -1.4448739,0 -2.6080756,-1.163201 -2.6080756,-2.608075 V 6.1488331 c 0,-1.4448738 1.1632017,-2.6080755 2.6080756,-2.6080755 L 3.8398948,2.6711828"/><rect style="fill:#000000;fill-opacity:1;fill-rule:evenodd;stroke:#000000;stroke-width:0.708036;stroke-linecap:butt;stroke-linejoin:round;stroke-miterlimit:0;stroke-dasharray:none" width="10.439284" height="1.5017917" x="2.6650615" y="0.35401788" ry="0.18314534"/></g></g><text x="100.0" y="1100.5" text-anchor="middle" font-size="10.0" font-family="Helvetica"  font-style="italic"  dominant-baseline="middle">&lt;&lt;jar&gt;&gt;</text><rect x="623.0" y="1090.5" height="75.0" width="160.0" fill="#808080" /><rect x="620.0" y="1087.5" height="75.0" width="160.0" fill="#ffffff" stroke="#000000" stroke-width="1"  /><text x="700.0" y="1124.0" text-anchor="middle" font-size="9.75" font-family="Helvetica"  dominant-baseline="middle">org.apache</text><text x="700.0" y="1135.0" text-anchor="middle" font-size="10.0" font-family="Helvetica"  dominant-baseline="middle">apache</text><text x="700.0" y="1146.0" text-anchor="middle" font-size="10.0" font-family="Helvetica"  dominant-baseline="middle">33</text><g transform="translate(755.0,1095.5)"><path  style="fill:none;stroke:#000000;stroke-width:0.999972px;stroke-linecap:butt;stroke-linejoin:miter;stroke-opacity:1" d="M 10.575434,0.49998599 V 5.7056524 h 5.373582 M 0.49998599,0.49998599 V 19.979214 H 15.949016 V 5.7056524 L 10.575434,0.49998599 Z"/><path style="fill:none;stroke:#000000;stroke-width:0.7;stroke-linecap:round;stroke-linejoin:miter;stroke-dasharray:none;stroke-opacity:1" d="m 9.2191888,7.2701619 -2.066052,5.8780631 m 3.2009262,-4.8014504 2.095151,2.0925764 -2.095151,2.097723 M 5.9891638,8.3467746 3.9887395,10.412875 5.9891638,12.537074 v 0"/></g><text x="700.0" y="1100.5" text-anchor="middle" font-size="10.0" font-family="Helvetica"  font-style="italic"  dominant-baseline="middle">&lt;&lt;pom&gt;&gt;</text><rect x="1333.0000381469727" y="1090.5" height="75.0" width="160.0" fill="#808080" /><rect x="1330.0000381469727" y="1087.5" height="75.0" width="160.0" fill="#ffffff" stroke="#000000" stroke-width="1"  /><text x="1410.0000381469727" y="1124.0" text-anchor="middle" font-size="9.75" font-family="Helvetica"  dominant-baseline="middle">com.fasterxml</text><text x="1410.0000381469727" y="1135.0" text-anchor="middle" font-size="10.0" font-family="Helvetica"  dominant-baseline="middle">oss-parent</text><text x="1410.0000381469727" y="1146.0" text-anchor="middle" font-size="10.0" font-family="Helvetica"  dominant-baseline="middle">38</text><g transform="translate(1465.0000381469727,1095.5)"><path  style="fill:none;stroke:#000000;stroke-width:0.999972px;stroke-linecap:butt;stroke-linejoin:miter;stroke-opacity:1" d="M 10.575434,0.49998599 V 5.7056524 h 5.373582 M 0.49998599,0.49998599 V 19.979214 H 15.949016 V 5.7056524 L 10.575434,0.49998599 Z"/><path style="fill:none;stroke:#000000;stroke-width:0.7;stroke-linecap:round;stroke-linejoin:miter;stroke-dasharray:none;stroke-opacity:1" d="m 9.2191888,7.2701619 -2.066052,5.8780631 m 3.2009262,-4.8014504 2.095151,2.0925764 -2.095151,2.097723 M 5.9891638,8.3467746 3.9887395,10.412875 5.9891638,12.537074 v 0"/></g><text x="1410.0000381469727" y="1100.5" text-anchor="middle" font-size="10.0" font-family="Helvetica"  font-style="italic"  dominant-baseline="middle">&lt;&lt;pom&gt;&gt;</text><rect x="1652.9999237060547" y="1090.5" height="75.0" width="160.0" fill="#808080" /><rect x="1649.9999237060547" y="1087.5" height="75.0" width="160.0" fill="#ffffff" stroke="#000000" stroke-width="1"  /><text x="1729.9999237060547" y="1124.0" text-anchor="middle" font-size="9.75" font-family="Helvetica"  dominant-baseline="middle">com.electricmind.dependency</text><text x="1729.9999237060547" y="1135.0" text-anchor="middle" font-size="10.0" font-family="Helvetica"  dominant-baseline="middle">dependency-root</text><text x="1729.9999237060547" y="1146.0" text-anchor="middle" font-size="10.0" font-family="Helvetica"  dominant-baseline="middle">2.0-SNAPSHOT</text><g transform="translate(1784.9999237060547,1095.5)"><path  style="fill:none;stroke:#000000;stroke-width:0.999972px;stroke-linecap:butt;stroke-linejoin:miter;stroke-opacity:1" d="M 10.575434,0.49998599 V 5.7056524 h 5.373582 M 0.49998599,0.49998599 V 19.979214 H 15.949016 V 5.7056524 L 10.575434,0.49998599 Z"/><path style="fill:none;stroke:#000000;stroke-width:0.7;stroke-linecap:round;stroke-linejoin:miter;stroke-dasharray:none;stroke-opacity:1" d="m 9.2191888,7.2701619 -2.066052,5.8780631 m 3.2009262,-4.8014504 2.095151,2.0925764 -2.095151,2.097723 M 5.9891638,8.3467746 3.9887395,10.412875 5.9891638,12.537074 v 0"/></g><text x="1729.9999237060547" y="1100.5" text-anchor="middle" font-size="10.0" font-family="Helvetica"  font-style="italic"  dominant-baseline="middle">&lt;&lt;pom&gt;&gt;</text><rect x="623.0" y="940.5" height="75.0" width="160.0" fill="#808080" /><rect x="620.0" y="937.5" height="75.0" width="160.0" fill="#ffffff" stroke="#000000" stroke-width="1"  /><text x="700.0" y="974.0" text-anchor="middle" font-size="9.75" font-family="Helvetica"  dominant-baseline="middle">org.apache.commons</text><text x="700.0" y="985.0" text-anchor="middle" font-size="10.0" font-family="Helvetica"  dominant-baseline="middle">commons-parent</text><text x="700.0" y="996.0" text-anchor="middle" font-size="10.0" font-family="Helvetica"  dominant-baseline="middle">78</text><g transform="translate(755.0,945.5)"><path  style="fill:none;stroke:#000000;stroke-width:0.999972px;stroke-linecap:butt;stroke-linejoin:miter;stroke-opacity:1" d="M 10.575434,0.49998599 V 5.7056524 h 5.373582 M 0.49998599,0.49998599 V 19.979214 H 15.949016 V 5.7056524 L 10.575434,0.49998599 Z"/><path style="fill:none;stroke:#000000;stroke-width:0.7;stroke-linecap:round;stroke-linejoin:miter;stroke-dasharray:none;stroke-opacity:1" d="m 9.2191888,7.2701619 -2.066052,5.8780631 m 3.2009262,-4.8014504 2.095151,2.0925764 -2.095151,2.097723 M 5.9891638,8.3467746 3.9887395,10.412875 5.9891638,12.537074 v 0"/></g><text x="700.0" y="950.5" text-anchor="middle" font-size="10.0" font-family="Helvetica"  font-style="italic"  dominant-baseline="middle">&lt;&lt;pom&gt;&gt;</text><rect x="1042.9999809265137" y="940.5" height="75.0" width="160.0" fill="#808080" /><rect x="1039.9999809265137" y="937.5" height="75.0" width="160.0" fill="#ffffff" stroke="#000000" stroke-width="1"  /><text x="1119.9999809265137" y="974.0" text-anchor="middle" font-size="9.75" font-family="Helvetica"  dominant-baseline="middle">com.fasterxml.jackson</text><text x="1119.9999809265137" y="985.0" text-anchor="middle" font-size="10.0" font-family="Helvetica"  dominant-baseline="middle">jackson-parent</text><text x="1119.9999809265137" y="996.0" text-anchor="middle" font-size="10.0" font-family="Helvetica"  dominant-baseline="middle">2.11</text><g transform="translate(1174.9999809265137,945.5)"><path  style="fill:none;stroke:#000000;stroke-width:0.999972px;stroke-linecap:butt;stroke-linejoin:miter;stroke-opacity:1" d="M 10.575434,0.49998599 V 5.7056524 h 5.373582 M 0.49998599,0.49998599 V 19.979214 H 15.949016 V 5.7056524 L 10.575434,0.49998599 Z"/><path style="fill:none;stroke:#000000;stroke-width:0.7;stroke-linecap:round;stroke-linejoin:miter;stroke-dasharray:none;stroke-opacity:1" d="m 9.2191888,7.2701619 -2.066052,5.8780631 m 3.2009262,-4.8014504 2.095151,2.0925764 -2.095151,2.097723 M 5.9891638,8.3467746 3.9887395,10.412875 5.9891638,12.537074 v 0"/></g><text x="1119.9999809265137" y="950.5" text-anchor="middle" font-size="10.0" font-family="Helvetica"  font-style="italic"  dominant-baseline="middle">&lt;&lt;pom&gt;&gt;</text><rect x="1442.9999809265137" y="940.5" height="75.0" width="160.0" fill="#808080" /><rect x="1439.9999809265137" y="937.5" height="75.0" width="160.0" fill="#ffffff" stroke="#000000" stroke-width="1"  /><text x="1519.9999809265137" y="974.0" text-anchor="middle" font-size="9.75" font-family="Helvetica"  dominant-baseline="middle">org.codehaus.woodstox</text><text x="1519.9999809265137" y="985.0" text-anchor="middle" font-size="10.0" font-family="Helvetica"  dominant-baseline="middle">stax2-api</text><text x="1519.9999809265137" y="996.0" text-anchor="middle" font-size="10.0" font-family="Helvetica"  dominant-baseline="middle">4.2.1</text><g transform="translate(1574.9999809265137,945.5)"><path  style="fill:none;stroke:#000000;stroke-width:0.999972px;stroke-linecap:butt;stroke-linejoin:miter;stroke-opacity:1" d="M 10.575434,0.49998599 V 5.7056524 h 5.373582 M 0.49998599,0.49998599 V 19.979214 H 15.949016 V 5.7056524 L 10.575434,0.49998599 Z"/></g><text x="1519.9999809265137" y="950.5" text-anchor="middle" font-size="10.0" font-family="Helvetica"  font-style="italic"  dominant-baseline="middle">&lt;&lt;bundle&gt;&gt;</text><rect x="223.0" y="790.5" height="75.0" width="160.0" fill="#808080" /><rect x="220.0" y="787.5" height="75.0" width="160.0" fill="#ffffff" stroke="#000000" stroke-width="1"  /><text x="300.0" y="824.0" text-anchor="middle" font-size="9.75" font-family="Helvetica"  dominant-baseline="middle">commons-io</text><text x="300.0" y="835.0" text-anchor="middle" font-size="10.0" font-family="Helvetica"  dominant-baseline="middle">commons-io</text><text x="300.0" y="846.0" text-anchor="middle" font-size="10.0" font-family="Helvetica"  dominant-baseline="middle">2.18.0</text><g transform="translate(355.0,795.5)"><g><path style="fill:#ffffff;fill-rule:evenodd;stroke:#000000;stroke-width:1;stroke-linecap:butt;stroke-linejoin:round;stroke-miterlimit:0;stroke-dasharray:none" d="m 11.945981,2.6898174 -0.01687,0.8509402 c 1.444873,0 2.608076,1.1632017 2.608076,2.6080755 V 17.374897 c 0,1.444874 -1.163203,2.608075 -2.608076,2.608075 H 3.8402971 c -1.4448739,0 -2.6080756,-1.163201 -2.6080756,-2.608075 V 6.1488331 c 0,-1.4448738 1.1632017,-2.6080755 2.6080756,-2.6080755 L 3.8398948,2.6711828"/><rect style="fill:#000000;fill-opacity:1;fill-rule:evenodd;stroke:#000000;stroke-width:0.708036;stroke-linecap:butt;stroke-linejoin:round;stroke-miterlimit:0;stroke-dasharray:none" width="10.439284" height="1.5017917" x="2.6650615" y="0.35401788" ry="0.18314534"/></g></g><text x="300.0" y="800.5" text-anchor="middle" font-size="10.0" font-family="Helvetica"  font-style="italic"  dominant-baseline="middle">&lt;&lt;jar&gt;&gt;</text><rect x="423.0" y="790.5" height="75.0" width="160.0" fill="#808080" /><rect x="420.0" y="787.5" height="75.0" width="160.0" fill="#ffffff" stroke="#000000" stroke-width="1"  /><text x="500.0" y="824.0" text-anchor="middle" font-size="9.75" font-family="Helvetica"  dominant-baseline="middle">commons-logging</text><text x="500.0" y="835.0" text-anchor="middle" font-size="10.0" font-family="Helvetica"  dominant-baseline="middle">commons-logging</text><text x="500.0" y="846.0" text-anchor="middle" font-size="10.0" font-family="Helvetica"  dominant-baseline="middle">1.2</text><g transform="translate(555.0,795.5)"><g><path style="fill:#ffffff;fill-rule:evenodd;stroke:#000000;stroke-width:1;stroke-linecap:butt;stroke-linejoin:round;stroke-miterlimit:0;stroke-dasharray:none" d="m 11.945981,2.6898174 -0.01687,0.8509402 c 1.444873,0 2.608076,1.1632017 2.608076,2.6080755 V 17.374897 c 0,1.444874 -1.163203,2.608075 -2.608076,2.608075 H 3.8402971 c -1.4448739,0 -2.6080756,-1.163201 -2.6080756,-2.608075 V 6.1488331 c 0,-1.4448738 1.1632017,-2.6080755 2.6080756,-2.6080755 L 3.8398948,2.6711828"/><rect style="fill:#000000;fill-opacity:1;fill-rule:evenodd;stroke:#000000;stroke-width:0.708036;stroke-linecap:butt;stroke-linejoin:round;stroke-miterlimit:0;stroke-dasharray:none" width="10.439284" height="1.5017917" x="2.6650615" y="0.35401788" ry="0.18314534"/></g></g><text x="500.0" y="800.5" text-anchor="middle" font-size="10.0" font-family="Helvetica"  font-style="italic"  dominant-baseline="middle">&lt;&lt;jar&gt;&gt;</text><rect x="623.0" y="790.5" height="75.0" width="160.0" fill="#808080" /><rect x="620.0" y="787.5" height="75.0" width="160.0" fill="#ffffff" stroke="#000000" stroke-width="1"  /><text x="700.0" y="824.0" text-anchor="middle" font-size="9.75" font-family="Helvetica"  dominant-baseline="middle">commons-collections</text><text x="700.0" y="835.0" text-anchor="middle" font-size="10.0" font-family="Helvetica"  dominant-baseline="middle">commons-collections</text><text x="700.0" y="846.0" text-anchor="middle" font-size="10.0" font-family="Helvetica"  dominant-baseline="middle">3.2.2</text><g transform="translate(755.0,795.5)"><g><path style="fill:#ffffff;fill-rule:evenodd;stroke:#000000;stroke-width:1;stroke-linecap:butt;stroke-linejoin:round;stroke-miterlimit:0;stroke-dasharray:none" d="m 11.945981,2.6898174 -0.01687,0.8509402 c 1.444873,0 2.608076,1.1632017 2.608076,2.6080755 V 17.374897 c 0,1.444874 -1.163203,2.608075 -2.608076,2.608075 H 3.8402971 c -1.4448739,0 -2.6080756,-1.163201 -2.6080756,-2.608075 V 6.1488331 c 0,-1.4448738 1.1632017,-2.6080755 2.6080756,-2.6080755 L 3.8398948,2.6711828"/><rect style="fill:#000000;fill-opacity:1;fill-rule:evenodd;stroke:#000000;stroke-width:0.708036;stroke-linecap:butt;stroke-linejoin:round;stroke-miterlimit:0;stroke-dasharray:none" width="10.439284" height="1.5017917" x="2.6650615" y="0.35401788" ry="0.18314534"/></g></g><text x="700.0" y="800.5" text-anchor="middle" font-size="10.0" font-family="Helvetica"  font-style="italic"  dominant-baseline="middle">&lt;&lt;jar&gt;&gt;</text><rect x="842.9999809265137" y="790.5" height="75.0" width="160.0" fill="#808080" /><rect x="839.9999809265137" y="787.5" height="75.0" width="160.0" fill="#ffffff" stroke="#000000" stroke-width="1"  /><text x="919.9999809265137" y="824.0" text-anchor="middle" font-size="9.75" font-family="Helvetica"  dominant-baseline="middle">org.apache.commons</text><text x="919.9999809265137" y="835.0" text-anchor="middle" font-size="10.0" font-family="Helvetica"  dominant-baseline="middle">commons-lang3</text><text x="919.9999809265137" y="846.0" text-anchor="middle" font-size="10.0" font-family="Helvetica"  dominant-baseline="middle">3.17.0</text><g transform="translate(974.9999809265137,795.5)"><g><path style="fill:#ffffff;fill-rule:evenodd;stroke:#000000;stroke-width:1;stroke-linecap:butt;stroke-linejoin:round;stroke-miterlimit:0;stroke-dasharray:none" d="m 11.945981,2.6898174 -0.01687,0.8509402 c 1.444873,0 2.608076,1.1632017 2.608076,2.6080755 V 17.374897 c 0,1.444874 -1.163203,2.608075 -2.608076,2.608075 H 3.8402971 c -1.4448739,0 -2.6080756,-1.163201 -2.6080756,-2.608075 V 6.1488331 c 0,-1.4448738 1.1632017,-2.6080755 2.6080756,-2.6080755 L 3.8398948,2.6711828"/><rect style="fill:#000000;fill-opacity:1;fill-rule:evenodd;stroke:#000000;stroke-width:0.708036;stroke-linecap:butt;stroke-linejoin:round;stroke-miterlimit:0;stroke-dasharray:none" width="10.439284" height="1.5017917" x="2.6650615" y="0.35401788" ry="0.18314534"/></g></g><text x="919.9999809265137" y="800.5" text-anchor="middle" font-size="10.0" font-family="Helvetica"  font-style="italic"  dominant-baseline="middle">&lt;&lt;jar&gt;&gt;</text><rect x="1042.9999809265137" y="790.5" height="75.0" width="160.0" fill="#808080" /><rect x="1039.9999809265137" y="787.5" height="75.0" width="160.0" fill="#ffffff" stroke="#000000" stroke-width="1"  /><text x="1119.9999809265137" y="824.0" text-anchor="middle" font-size="9.75" font-family="Helvetica"  dominant-baseline="middle">com.fasterxml.jackson</text><text x="1119.9999809265137" y="835.0" text-anchor="middle" font-size="10.0" font-family="Helvetica"  dominant-baseline="middle">jackson-bom</text><text x="1119.9999809265137" y="846.0" text-anchor="middle" font-size="10.0" font-family="Helvetica"  dominant-baseline="middle">2.11.1</text><g transform="translate(1174.9999809265137,795.5)"><path  style="fill:none;stroke:#000000;stroke-width:0.999972px;stroke-linecap:butt;stroke-linejoin:miter;stroke-opacity:1" d="M 10.575434,0.49998599 V 5.7056524 h 5.373582 M 0.49998599,0.49998599 V 19.979214 H 15.949016 V 5.7056524 L 10.575434,0.49998599 Z"/><path style="fill:none;stroke:#000000;stroke-width:0.7;stroke-linecap:round;stroke-linejoin:miter;stroke-dasharray:none;stroke-opacity:1" d="m 9.2191888,7.2701619 -2.066052,5.8780631 m 3.2009262,-4.8014504 2.095151,2.0925764 -2.095151,2.097723 M 5.9891638,8.3467746 3.9887395,10.412875 5.9891638,12.537074 v 0"/></g><text x="1119.9999809265137" y="800.5" text-anchor="middle" font-size="10.0" font-family="Helvetica"  font-style="italic"  dominant-baseline="middle">&lt;&lt;pom&gt;&gt;</text><rect x="1242.9999809265137" y="790.5" height="75.0" width="160.0" fill="#808080" /><rect x="1239.9999809265137" y="787.5" height="75.0" width="160.0" fill="#ffffff" stroke="#000000" stroke-width="1"  /><text x="1319.9999809265137" y="824.0" text-anchor="middle" font-size="9.75" font-family="Helvetica"  dominant-baseline="middle">com.fasterxml.woodstox</text><text x="1319.9999809265137" y="835.0" text-anchor="middle" font-size="10.0" font-family="Helvetica"  dominant-baseline="middle">woodstox-core</text><text x="1319.9999809265137" y="846.0" text-anchor="middle" font-size="10.0" font-family="Helvetica"  dominant-baseline="middle">6.2.1</text><g transform="translate(1374.9999809265137,795.5)"><path  style="fill:none;stroke:#000000;stroke-width:0.999972px;stroke-linecap:butt;stroke-linejoin:miter;stroke-opacity:1" d="M 10.575434,0.49998599 V 5.7056524 h 5.373582 M 0.49998599,0.49998599 V 19.979214 H 15.949016 V 5.7056524 L 10.575434,0.49998599 Z"/></g><text x="1319.9999809265137" y="800.5" text-anchor="middle" font-size="10.0" font-family="Helvetica"  font-style="italic"  dominant-baseline="middle">&lt;&lt;bundle&gt;&gt;</text><rect x="623.0" y="640.5" height="75.0" width="160.0" fill="#808080" /><rect x="620.0" y="637.5" height="75.0" width="160.0" fill="#ffffff" stroke="#000000" stroke-width="1"  /><text x="700.0" y="674.0" text-anchor="middle" font-size="9.75" font-family="Helvetica"  dominant-baseline="middle">commons-beanutils</text><text x="700.0" y="685.0" text-anchor="middle" font-size="10.0" font-family="Helvetica"  dominant-baseline="middle">commons-beanutils</text><text x="700.0" y="696.0" text-anchor="middle" font-size="10.0" font-family="Helvetica"  dominant-baseline="middle">1.9.4</text><g transform="translate(755.0,645.5)"><g><path style="fill:#ffffff;fill-rule:evenodd;stroke:#000000;stroke-width:1;stroke-linecap:butt;stroke-linejoin:round;stroke-miterlimit:0;stroke-dasharray:none" d="m 11.945981,2.6898174 -0.01687,0.8509402 c 1.444873,0 2.608076,1.1632017 2.608076,2.6080755 V 17.374897 c 0,1.444874 -1.163203,2.608075 -2.608076,2.608075 H 3.8402971 c -1.4448739,0 -2.6080756,-1.163201 -2.6080756,-2.608075 V 6.1488331 c 0,-1.4448738 1.1632017,-2.6080755 2.6080756,-2.6080755 L 3.8398948,2.6711828"/><rect style="fill:#000000;fill-opacity:1;fill-rule:evenodd;stroke:#000000;stroke-width:0.708036;stroke-linecap:butt;stroke-linejoin:round;stroke-miterlimit:0;stroke-dasharray:none" width="10.439284" height="1.5017917" x="2.6650615" y="0.35401788" ry="0.18314534"/></g></g><text x="700.0" y="650.5" text-anchor="middle" font-size="10.0" font-family="Helvetica"  font-style="italic"  dominant-baseline="middle">&lt;&lt;jar&gt;&gt;</text><rect x="1042.9999809265137" y="640.5" height="75.0" width="160.0" fill="#808080" /><rect x="1039.9999809265137" y="637.5" height="75.0" width="160.0" fill="#ffffff" stroke="#000000" stroke-width="1"  /><text x="1119.9999809265137" y="674.0" text-anchor="middle" font-size="9.75" font-family="Helvetica"  dominant-baseline="middle">com.fasterxml.jackson</text><text x="1119.9999809265137" y="685.0" text-anchor="middle" font-size="10.0" font-family="Helvetica"  dominant-baseline="middle">jackson-base</text><text x="1119.9999809265137" y="696.0" text-anchor="middle" font-size="10.0" font-family="Helvetica"  dominant-baseline="middle">2.11.1</text><g transform="translate(1174.9999809265137,645.5)"><path  style="fill:none;stroke:#000000;stroke-width:0.999972px;stroke-linecap:butt;stroke-linejoin:miter;stroke-opacity:1" d="M 10.575434,0.49998599 V 5.7056524 h 5.373582 M 0.49998599,0.49998599 V 19.979214 H 15.949016 V 5.7056524 L 10.575434,0.49998599 Z"/><path style="fill:none;stroke:#000000;stroke-width:0.7;stroke-linecap:round;stroke-linejoin:miter;stroke-dasharray:none;stroke-opacity:1" d="m 9.2191888,7.2701619 -2.066052,5.8780631 m 3.2009262,-4.8014504 2.095151,2.0925764 -2.095151,2.097723 M 5.9891638,8.3467746 3.9887395,10.412875 5.9891638,12.537074 v 0"/></g><text x="1119.9999809265137" y="650.5" text-anchor="middle" font-size="10.0" font-family="Helvetica"  font-style="italic"  dominant-baseline="middle">&lt;&lt;pom&gt;&gt;</text><rect x="623.0" y="490.5" height="75.0" width="160.0" fill="#808080" /><rect x="620.0" y="487.5" height="75.0" width="160.0" fill="#ffffff" stroke="#000000" stroke-width="1"  /><text x="700.0" y="524.0" text-anchor="middle" font-size="9.75" font-family="Helvetica"  dominant-baseline="middle">com.electricmind.dependency</text><text x="700.0" y="535.0" text-anchor="middle" font-size="10.0" font-family="Helvetica"  dominant-baseline="middle">dependency</text><text x="700.0" y="546.0" text-anchor="middle" font-size="10.0" font-family="Helvetica"  dominant-baseline="middle">2.0-SNAPSHOT</text><g transform="translate(755.0,495.5)"><g><path style="fill:#ffffff;fill-rule:evenodd;stroke:#000000;stroke-width:1;stroke-linecap:butt;stroke-linejoin:round;stroke-miterlimit:0;stroke-dasharray:none" d="m 11.945981,2.6898174 -0.01687,0.8509402 c 1.444873,0 2.608076,1.1632017 2.608076,2.6080755 V 17.374897 c 0,1.444874 -1.163203,2.608075 -2.608076,2.608075 H 3.8402971 c -1.4448739,0 -2.6080756,-1.163201 -2.6080756,-2.608075 V 6.1488331 c 0,-1.4448738 1.1632017,-2.6080755 2.6080756,-2.6080755 L 3.8398948,2.6711828"/><rect style="fill:#000000;fill-opacity:1;fill-rule:evenodd;stroke:#000000;stroke-width:0.708036;stroke-linecap:butt;stroke-linejoin:round;stroke-miterlimit:0;stroke-dasharray:none" width="10.439284" height="1.5017917" x="2.6650615" y="0.35401788" ry="0.18314534"/></g></g><text x="700.0" y="500.5" text-anchor="middle" font-size="10.0" font-family="Helvetica"  font-style="italic"  dominant-baseline="middle">&lt;&lt;jar&gt;&gt;</text><rect x="1242.9999809265137" y="490.5" height="75.0" width="160.0" fill="#808080" /><rect x="1239.9999809265137" y="487.5" height="75.0" width="160.0" fill="#ffffff" stroke="#000000" stroke-width="1"  /><text x="1319.9999809265137" y="524.0" text-anchor="middle" font-size="9.75" font-family="Helvetica"  dominant-baseline="middle">com.fasterxml.jackson.dataformat</text><text x="1319.9999809265137" y="535.0" text-anchor="middle" font-size="10.0" font-family="Helvetica"  dominant-baseline="middle">jackson-dataformat-xml</text><text x="1319.9999809265137" y="546.0" text-anchor="middle" font-size="10.0" font-family="Helvetica"  dominant-baseline="middle">2.11.1</text><g transform="translate(1374.9999809265137,495.5)"><path  style="fill:none;stroke:#000000;stroke-width:0.999972px;stroke-linecap:butt;stroke-linejoin:miter;stroke-opacity:1" d="M 10.575434,0.49998599 V 5.7056524 h 5.373582 M 0.49998599,0.49998599 V 19.979214 H 15.949016 V 5.7056524 L 10.575434,0.49998599 Z"/></g><text x="1319.9999809265137" y="500.5" text-anchor="middle" font-size="10.0" font-family="Helvetica"  font-style="italic"  dominant-baseline="middle">&lt;&lt;bundle&gt;&gt;</text><rect x="223.0" y="340.5" height="75.0" width="160.0" fill="#808080" /><rect x="220.0" y="337.5" height="75.0" width="160.0" fill="#ffffff" stroke="#000000" stroke-width="1"  /><text x="300.0" y="374.0" text-anchor="middle" font-size="9.75" font-family="Helvetica"  dominant-baseline="middle">com.electricmind.dependency</text><text x="300.0" y="385.0" text-anchor="middle" font-size="10.0" font-family="Helvetica"  dominant-baseline="middle">dependency-graph</text><text x="300.0" y="396.0" text-anchor="middle" font-size="10.0" font-family="Helvetica"  dominant-baseline="middle">2.0-SNAPSHOT</text><g transform="translate(355.0,345.5)"><g><path style="fill:#ffffff;fill-rule:evenodd;stroke:#000000;stroke-width:1;stroke-linecap:butt;stroke-linejoin:round;stroke-miterlimit:0;stroke-dasharray:none" d="m 11.945981,2.6898174 -0.01687,0.8509402 c 1.444873,0 2.608076,1.1632017 2.608076,2.6080755 V 17.374897 c 0,1.444874 -1.163203,2.608075 -2.608076,2.608075 H 3.8402971 c -1.4448739,0 -2.6080756,-1.163201 -2.6080756,-2.608075 V 6.1488331 c 0,-1.4448738 1.1632017,-2.6080755 2.6080756,-2.6080755 L 3.8398948,2.6711828"/><rect style="fill:#000000;fill-opacity:1;fill-rule:evenodd;stroke:#000000;stroke-width:0.708036;stroke-linecap:butt;stroke-linejoin:round;stroke-miterlimit:0;stroke-dasharray:none" width="10.439284" height="1.5017917" x="2.6650615" y="0.35401788" ry="0.18314534"/></g></g><text x="300.0" y="350.5" text-anchor="middle" font-size="10.0" font-family="Helvetica"  font-style="italic"  dominant-baseline="middle">&lt;&lt;jar&gt;&gt;</text><rect x="1042.9999809265137" y="340.5" height="75.0" width="160.0" fill="#808080" /><rect x="1039.9999809265137" y="337.5" height="75.0" width="160.0" fill="#ffffff" stroke="#000000" stroke-width="1"  /><text x="1119.9999809265137" y="374.0" text-anchor="middle" font-size="9.75" font-family="Helvetica"  dominant-baseline="middle">com.electricmind.dependency</text><text x="1119.9999809265137" y="385.0" text-anchor="middle" font-size="10.0" font-family="Helvetica"  dominant-baseline="middle">dependency-maven</text><text x="1119.9999809265137" y="396.0" text-anchor="middle" font-size="10.0" font-family="Helvetica"  dominant-baseline="middle">2.0-SNAPSHOT</text><g transform="translate(1174.9999809265137,345.5)"><g><path style="fill:#ffffff;fill-rule:evenodd;stroke:#000000;stroke-width:1;stroke-linecap:butt;stroke-linejoin:round;stroke-miterlimit:0;stroke-dasharray:none" d="m 11.945981,2.6898174 -0.01687,0.8509402 c 1.444873,0 2.608076,1.1632017 2.608076,2.6080755 V 17.374897 c 0,1.444874 -1.163203,2.608075 -2.608076,2.608075 H 3.8402971 c -1.4448739,0 -2.6080756,-1.163201 -2.6080756,-2.608075 V 6.1488331 c 0,-1.4448738 1.1632017,-2.6080755 2.6080756,-2.6080755 L 3.8398948,2.6711828"/><rect style="fill:#000000;fill-opacity:1;fill-rule:evenodd;stroke:#000000;stroke-width:0.708036;stroke-linecap:butt;stroke-linejoin:round;stroke-miterlimit:0;stroke-dasharray:none" width="10.439284" height="1.5017917" x="2.6650615" y="0.35401788" ry="0.18314534"/></g></g><text x="1119.9999809265137" y="350.5" text-anchor="middle" font-size="10.0" font-family="Helvetica"  font-style="italic"  dominant-baseline="middle">&lt;&lt;jar&gt;&gt;</text><rect x="1042.9999809265137" y="190.5" height="75.0" width="160.0" fill="#808080" /><rect x="1039.9999809265137" y="187.5" height="75.0" width="160.0" fill="#ffffff" stroke="#000000" stroke-width="1"  /><text x="1119.9999809265137" y="224.0" text-anchor="middle" font-size="9.75" font-family="Helvetica"  dominant-baseline="middle">com.electricmind.dependency</text><text x="1119.9999809265137" y="235.0" text-anchor="middle" font-size="10.0" font-family="Helvetica"  dominant-baseline="middle">sample-maven</text><text x="1119.9999809265137" y="246.0" text-anchor="middle" font-size="10.0" font-family="Helvetica"  dominant-baseline="middle">2.0-SNAPSHOT</text><g transform="translate(1174.9999809265137,195.5)"><g><path style="fill:#ffffff;fill-rule:evenodd;stroke:#000000;stroke-width:1;stroke-linecap:butt;stroke-linejoin:round;stroke-miterlimit:0;stroke-dasharray:none" d="m 11.945981,2.6898174 -0.01687,0.8509402 c 1.444873,0 2.608076,1.1632017 2.608076,2.6080755 V 17.374897 c 0,1.444874 -1.163203,2.608075 -2.608076,2.608075 H 3.8402971 c -1.4448739,0 -2.6080756,-1.163201 -2.6080756,-2.608075 V 6.1488331 c 0,-1.4448738 1.1632017,-2.6080755 2.6080756,-2.6080755 L 3.8398948,2.6711828"/><rect style="fill:#000000;fill-opacity:1;fill-rule:evenodd;stroke:#000000;stroke-width:0.708036;stroke-linecap:butt;stroke-linejoin:round;stroke-miterlimit:0;stroke-dasharray:none" width="10.439284" height="1.5017917" x="2.6650615" y="0.35401788" ry="0.18314534"/></g></g><text x="1119.9999809265137" y="200.5" text-anchor="middle" font-size="10.0" font-family="Helvetica"  font-style="italic"  dominant-baseline="middle">&lt;&lt;jar&gt;&gt;</text><marker style="overflow:visible" id="ArrowWide--173952447" refX="0" refY="0" orient="auto-start-reverse" markerWidth="1" markerHeight="1" viewBox="0 0 1 1" preserveAspectRatio="xMidYMid"><path style="fill:none;stroke:context-stroke;stroke-width:1;stroke-linecap:butt" d="M 5,-5 0,0 5,5" transform="rotate(180,0.125,0)" /></marker><path d="M 700.0 1012.5 L 700.0 1087.5 " stroke-width="1.0" stroke="#404040" fill="none" stroke-dasharray="8 5" marker-end="url(#ArrowWide--173952447" /><marker style="overflow:visible" id="ArrowWide-771546867" refX="0" refY="0" orient="auto-start-reverse" markerWidth="1" markerHeight="1" viewBox="0 0 1 1" preserveAspectRatio="xMidYMid"><path style="fill:none;stroke:context-stroke;stroke-width:1;stroke-linecap:butt" d="M 5,-5 0,0 5,5" transform="rotate(180,0.125,0)" /></marker><path d="M 1192.4999952316284 1012.5 L 1337.500023841858 1087.5 " stroke-width="1.0" stroke="#404040" fill="none" stroke-dasharray="8 5" marker-end="url(#ArrowWide-771546867" /><marker style="overflow:visible" id="ArrowWide--1282917137" refX="0" refY="0" orient="auto-start-reverse" markerWidth="1" markerHeight="1" viewBox="0 0 1 1" preserveAspectRatio="xMidYMid"><path style="fill:none;stroke:context-stroke;stroke-width:1;stroke-linecap:butt" d="M 5,-5 0,0 5,5" transform="rotate(180,0.125,0)" /></marker><path d="M 1492.4999952316284 1012.5 L 1437.500023841858 1087.5 " stroke-width="1.0" stroke="#404040" fill="none" stroke-dasharray="8 5" marker-end="url(#ArrowWide--1282917137" /><marker style="overflow:visible" id="ArrowWide--1172787794" refX="0" refY="0" orient="auto-start-reverse" markerWidth="1" markerHeight="1" viewBox="0 0 1 1" preserveAspectRatio="xMidYMid"><path style="fill:none;stroke:context-stroke;stroke-width:1;stroke-linecap:butt" d="M 5,-5 0,0 5,5" transform="rotate(180,0.125,0)" /></marker><path d="M 380.0 855.0 L 620.0 945.0 " stroke-width="1.0" stroke="#404040" fill="none" stroke-dasharray="8 5" marker-end="url(#ArrowWide--1172787794" /><marker style="overflow:visible" id="ArrowWide--676763709" refX="0" refY="0" orient="auto-start-reverse" markerWidth="1" markerHeight="1" viewBox="0 0 1 1" preserveAspectRatio="xMidYMid"><path style="fill:none;stroke:context-stroke;stroke-width:1;stroke-linecap:butt" d="M 5,-5 0,0 5,5" transform="rotate(180,0.125,0)" /></marker><path d="M 550.0 862.5 L 650.0 937.5 " stroke-width="1.0" stroke="#404040" fill="none" stroke-dasharray="8 5" marker-end="url(#ArrowWide--676763709" /><marker style="overflow:visible" id="ArrowWide-1705292950" refX="0" refY="0" orient="auto-start-reverse" markerWidth="1" markerHeight="1" viewBox="0 0 1 1" preserveAspectRatio="xMidYMid"><path style="fill:none;stroke:context-stroke;stroke-width:1;stroke-linecap:butt" d="M 5,-5 0,0 5,5" transform="rotate(180,0.125,0)" /></marker><path d="M 700.0 862.5 L 700.0 937.5 " stroke-width="1.0" stroke="#404040" fill="none" stroke-dasharray="8 5" marker-end="url(#ArrowWide-1705292950" /><marker style="overflow:visible" id="ArrowWide-2106131734" refX="0" refY="0" orient="auto-start-reverse" markerWidth="1" markerHeight="1" viewBox="0 0 1 1" preserveAspectRatio="xMidYMid"><path style="fill:none;stroke:context-stroke;stroke-width:1;stroke-linecap:butt" d="M 5,-5 0,0 5,5" transform="rotate(180,0.125,0)" /></marker><path d="M 864.9999856948855 862.5 L 754.9999952316286 937.5 " stroke-width="1.0" stroke="#404040" fill="none" stroke-dasharray="8 5" marker-end="url(#ArrowWide-2106131734" /><marker style="overflow:visible" id="ArrowWide--1543126186" refX="0" refY="0" orient="auto-start-reverse" markerWidth="1" markerHeight="1" viewBox="0 0 1 1" preserveAspectRatio="xMidYMid"><path style="fill:none;stroke:context-stroke;stroke-width:1;stroke-linecap:butt" d="M 5,-5 0,0 5,5" transform="rotate(180,0.125,0)" /></marker><path d="M 1119.9999809265137 862.5 L 1119.9999809265137 937.5 " stroke-width="1.0" stroke="#404040" fill="none" stroke-dasharray="8 5" marker-end="url(#ArrowWide--1543126186" /><marker style="overflow:visible" id="ArrowWide--1779599356" refX="0" refY="0" orient="auto-start-reverse" markerWidth="1" markerHeight="1" viewBox="0 0 1 1" preserveAspectRatio="xMidYMid"><path style="fill:none;stroke:context-stroke;stroke-width:1;stroke-linecap:butt" d="M 5,-5 0,0 5,5" transform="rotate(180,0.125,0)" /></marker><path d="M 1319.9999809265137 862.5 L 1319.9999809265137 937.5 L 1319.9999809265137 1012.5 L 1380.0000190734863 1087.5 " stroke-width="1.0" stroke="#404040" fill="none" stroke-dasharray="8 5" marker-end="url(#ArrowWide--1779599356" /><marker style="overflow:visible" id="ArrowWide-1248389205" refX="0" refY="0" orient="auto-start-reverse" markerWidth="1" markerHeight="1" viewBox="0 0 1 1" preserveAspectRatio="xMidYMid"><path style="fill:none;stroke:context-stroke;stroke-width:1;stroke-linecap:butt" d="M 5,-5 0,0 5,5" transform="rotate(180,0.125,0)" /></marker><path d="M 1369.9999809265137 862.5 L 1469.9999809265137 937.5 " stroke-width="1.0" stroke="#404040" fill="none" stroke-dasharray="8 5" marker-end="url(#ArrowWide-1248389205" /><marker style="overflow:visible" id="ArrowWide--491251034" refX="0" refY="0" orient="auto-start-reverse" markerWidth="1" markerHeight="1" viewBox="0 0 1 1" preserveAspectRatio="xMidYMid"><path style="fill:none;stroke:context-stroke;stroke-width:1;stroke-linecap:butt" d="M 5,-5 0,0 5,5" transform="rotate(180,0.125,0)" /></marker><path d="M 650.0 712.5 L 550.0 787.5 " stroke-width="1.0" stroke="#404040" fill="none" stroke-dasharray="8 5" marker-end="url(#ArrowWide--491251034" /><marker style="overflow:visible" id="ArrowWide-1988868537" refX="0" refY="0" orient="auto-start-reverse" markerWidth="1" markerHeight="1" viewBox="0 0 1 1" preserveAspectRatio="xMidYMid"><path style="fill:none;stroke:context-stroke;stroke-width:1;stroke-linecap:butt" d="M 5,-5 0,0 5,5" transform="rotate(180,0.125,0)" /></marker><path d="M 700.0 712.5 L 700.0 787.5 " stroke-width="1.0" stroke="#404040" fill="none" stroke-dasharray="8 5" marker-end="url(#ArrowWide-1988868537" /><marker style="overflow:visible" id="ArrowWide-871558807" refX="0" refY="0" orient="auto-start-reverse" markerWidth="1" markerHeight="1" viewBox="0 0 1 1" preserveAspectRatio="xMidYMid"><path style="fill:none;stroke:context-stroke;stroke-width:1;stroke-linecap:butt" d="M 5,-5 0,0 5,5" transform="rotate(180,0.125,0)" /></marker><path d="M 736.6666793823242 712.5 L 810.0000381469727 787.5 L 810.0000381469727 862.5 L 736.6666793823243 937.5 " stroke-width="1.0" stroke="#404040" fill="none" stroke-dasharray="8 5" marker-end="url(#ArrowWide-871558807" /><marker style="overflow:visible" id="ArrowWide-2048494657" refX="0" refY="0" orient="auto-start-reverse" markerWidth="1" markerHeight="1" viewBox="0 0 1 1" preserveAspectRatio="xMidYMid"><path style="fill:none;stroke:context-stroke;stroke-width:1;stroke-linecap:butt" d="M 5,-5 0,0 5,5" transform="rotate(180,0.125,0)" /></marker><path d="M 1119.9999809265137 712.5 L 1119.9999809265137 787.5 " stroke-width="1.0" stroke="#404040" fill="none" stroke-dasharray="8 5" marker-end="url(#ArrowWide-2048494657" /><marker style="overflow:visible" id="ArrowWide--1449089124" refX="0" refY="0" orient="auto-start-reverse" markerWidth="1" markerHeight="1" viewBox="0 0 1 1" preserveAspectRatio="xMidYMid"><path style="fill:none;stroke:context-stroke;stroke-width:1;stroke-linecap:butt" d="M 5,-5 0,0 5,5" transform="rotate(180,0.125,0)" /></marker><path d="M 700.0 562.5 L 700.0 637.5 " stroke-width="1.0" stroke="#404040" fill="none" stroke-dasharray="8 5" marker-end="url(#ArrowWide--1449089124" /><marker style="overflow:visible" id="ArrowWide--1808572393" refX="0" refY="0" orient="auto-start-reverse" markerWidth="1" markerHeight="1" viewBox="0 0 1 1" preserveAspectRatio="xMidYMid"><path style="fill:none;stroke:context-stroke;stroke-width:1;stroke-linecap:butt" d="M 5,-5 0,0 5,5" transform="rotate(180,0.125,0)" /></marker><path d="M 1269.9999809265137 562.5 L 1169.9999809265137 637.5 " stroke-width="1.0" stroke="#404040" fill="none" stroke-dasharray="8 5" marker-end="url(#ArrowWide--1808572393" /><marker style="overflow:visible" id="ArrowWide-672325912" refX="0" refY="0" orient="auto-start-reverse" markerWidth="1" markerHeight="1" viewBox="0 0 1 1" preserveAspectRatio="xMidYMid"><path style="fill:none;stroke:context-stroke;stroke-width:1;stroke-linecap:butt" d="M 5,-5 0,0 5,5" transform="rotate(180,0.125,0)" /></marker><path d="M 1319.9999809265137 562.5 L 1319.9999809265137 637.5 L 1319.9999809265137 712.5 L 1319.9999809265137 787.5 " stroke-width="1.0" stroke="#404040" fill="none" stroke-dasharray="8 5" marker-end="url(#ArrowWide-672325912" /><marker style="overflow:visible" id="ArrowWide-1085472531" refX="0" refY="0" orient="auto-start-reverse" markerWidth="1" markerHeight="1" viewBox="0 0 1 1" preserveAspectRatio="xMidYMid"><path style="fill:none;stroke:context-stroke;stroke-width:1;stroke-linecap:butt" d="M 5,-5 0,0 5,5" transform="rotate(180,0.125,0)" /></marker><path d="M 1386.6666475931804 562.5 L 1519.9999809265137 637.5 L 1519.9999809265137 862.5 L 1519.9999809265137 937.5 " stroke-width="1.0" stroke="#404040" fill="none" stroke-dasharray="8 5" marker-end="url(#ArrowWide-1085472531" /><marker style="overflow:visible" id="ArrowWide-386588957" refX="0" refY="0" orient="auto-start-reverse" markerWidth="1" markerHeight="1" viewBox="0 0 1 1" preserveAspectRatio="xMidYMid"><path style="fill:none;stroke:context-stroke;stroke-width:1;stroke-linecap:butt" d="M 5,-5 0,0 5,5" transform="rotate(180,0.125,0)" /></marker><path d="M 233.33333333333334 412.5 L 100.0 487.5 L 100.0 1012.5 L 100.0 1087.5 " stroke-width="1.0" stroke="#404040" fill="none" stroke-dasharray="8 5" marker-end="url(#ArrowWide-386588957" /><marker style="overflow:visible" id="ArrowWide-1423063721" refX="0" refY="0" orient="auto-start-reverse" markerWidth="1" markerHeight="1" viewBox="0 0 1 1" preserveAspectRatio="xMidYMid"><path style="fill:none;stroke:context-stroke;stroke-width:1;stroke-linecap:butt" d="M 5,-5 0,0 5,5" transform="rotate(180,0.125,0)" /></marker><path d="M 300.0 412.5 L 300.0 487.5 L 300.0 712.5 L 300.0 787.5 " stroke-width="1.0" stroke="#404040" fill="none" stroke-dasharray="8 5" marker-end="url(#ArrowWide-1423063721" /><marker style="overflow:visible" id="ArrowWide-251373015" refX="0" refY="0" orient="auto-start-reverse" markerWidth="1" markerHeight="1" viewBox="0 0 1 1" preserveAspectRatio="xMidYMid"><path style="fill:none;stroke:context-stroke;stroke-width:1;stroke-linecap:butt" d="M 5,-5 0,0 5,5" transform="rotate(180,0.125,0)" /></marker><path d="M 380.0 405.0 L 620.0 495.0 " stroke-width="1.0" stroke="#404040" fill="none" stroke-dasharray="8 5" marker-end="url(#ArrowWide-251373015" /><marker style="overflow:visible" id="ArrowWide--1651305348" refX="0" refY="0" orient="auto-start-reverse" markerWidth="1" markerHeight="1" viewBox="0 0 1 1" preserveAspectRatio="xMidYMid"><path style="fill:none;stroke:context-stroke;stroke-width:1;stroke-linecap:butt" d="M 5,-5 0,0 5,5" transform="rotate(180,0.125,0)" /></marker><path d="M 1039.9999809265137 403.5714298689448 L 780.0 496.4285701310554 " stroke-width="1.0" stroke="#404040" fill="none" stroke-dasharray="8 5" marker-end="url(#ArrowWide--1651305348" /><marker style="overflow:visible" id="ArrowWide--1892718692" refX="0" refY="0" orient="auto-start-reverse" markerWidth="1" markerHeight="1" viewBox="0 0 1 1" preserveAspectRatio="xMidYMid"><path style="fill:none;stroke:context-stroke;stroke-width:1;stroke-linecap:butt" d="M 5,-5 0,0 5,5" transform="rotate(180,0.125,0)" /></marker><path d="M 1053.333314259847 412.5 L 919.9999809265137 487.5 L 919.9999809265137 712.5 L 919.9999809265137 787.5 " stroke-width="1.0" stroke="#404040" fill="none" stroke-dasharray="8 5" marker-end="url(#ArrowWide--1892718692" /><marker style="overflow:visible" id="ArrowWide-582851104" refX="0" refY="0" orient="auto-start-reverse" markerWidth="1" markerHeight="1" viewBox="0 0 1 1" preserveAspectRatio="xMidYMid"><path style="fill:none;stroke:context-stroke;stroke-width:1;stroke-linecap:butt" d="M 5,-5 0,0 5,5" transform="rotate(180,0.125,0)" /></marker><path d="M 1169.9999809265137 412.5 L 1269.9999809265137 487.5 " stroke-width="1.0" stroke="#404040" fill="none" stroke-dasharray="8 5" marker-end="url(#ArrowWide-582851104" /><marker style="overflow:visible" id="ArrowWide--2084205292" refX="0" refY="0" orient="auto-start-reverse" markerWidth="1" markerHeight="1" viewBox="0 0 1 1" preserveAspectRatio="xMidYMid"><path style="fill:none;stroke:context-stroke;stroke-width:1;stroke-linecap:butt" d="M 5,-5 0,0 5,5" transform="rotate(180,0.125,0)" /></marker><path d="M 1199.9999809265137 389.99999761581455 L 1720.0000762939453 487.5 L 1720.0000762939453 1012.5 L 1726.6666412353513 1087.5 " stroke-width="1.0" stroke="#404040" fill="none" stroke-dasharray="8 5" marker-end="url(#ArrowWide--2084205292" /><marker style="overflow:visible" id="ArrowWide-1837727749" refX="0" refY="0" orient="auto-start-reverse" markerWidth="1" markerHeight="1" viewBox="0 0 1 1" preserveAspectRatio="xMidYMid"><path style="fill:none;stroke:context-stroke;stroke-width:1;stroke-linecap:butt" d="M 5,-5 0,0 5,5" transform="rotate(180,0.125,0)" /></marker><path d="M 1039.9999809265137 239.6341466818588 L 380.0 360.36585331814126 " stroke-width="1.0" stroke="#404040" fill="none" stroke-dasharray="8 5" marker-end="url(#ArrowWide-1837727749" /><marker style="overflow:visible" id="ArrowWide--1497741418" refX="0" refY="0" orient="auto-start-reverse" markerWidth="1" markerHeight="1" viewBox="0 0 1 1" preserveAspectRatio="xMidYMid"><path style="fill:none;stroke:context-stroke;stroke-width:1;stroke-linecap:butt" d="M 5,-5 0,0 5,5" transform="rotate(180,0.125,0)" /></marker><path d="M 1119.9999809265137 262.5 L 1119.9999809265137 337.5 " stroke-width="1.0" stroke="#404040" fill="none" stroke-dasharray="8 5" marker-end="url(#ArrowWide--1497741418" /><marker style="overflow:visible" id="ArrowWide-454186143" refX="0" refY="0" orient="auto-start-reverse" markerWidth="1" markerHeight="1" viewBox="0 0 1 1" preserveAspectRatio="xMidYMid"><path style="fill:none;stroke:context-stroke;stroke-width:1;stroke-linecap:butt" d="M 5,-5 0,0 5,5" transform="rotate(180,0.125,0)" /></marker><path d="M 1199.9999809265137 237.67605735961948 L 1829.9999237060547 337.5 L 1829.9999237060547 1012.5 L 1763.333257039388 1087.5 " stroke-width="1.0" stroke="#404040" fill="none" stroke-dasharray="8 5" marker-end="url(#ArrowWide-454186143" /></g></g></svg>