<?xml version="1.0" encoding="UTF-8" standalone="no"?><svg width="405.0" height="600.0" viewBox="0 0 405.0 600.0" xmlns="http://www.w3.org/2000/svg" xmlns:xlink="http://www.w3.org/1999/xlink"><g><rect x="0" y="150.0" width="405.0" height="150.0" fill="#cbdbfc" /><rect x="0" y="450.0" width="405.0" height="150.0" fill="#cbdbfc" /><g transform="translate(2.5,-150.0)" ><rect x="123.0" y="640.5" height="75.0" width="160.0" fill="#000000" fill-opacity="0.3984375" /><rect x="120.0" y="637.5" height="75.0" width="160.0" fill="#ffffff" stroke="#000000" stroke-width="1"  /><text x="200.0" y="679.5" text-anchor="middle" font-size="10.0" font-family="Helvetica"  font-weight="bold"  dominant-baseline="middle">color-name</text><text x="200.0" y="690.5" text-anchor="middle" font-size="10.0" font-family="Helvetica"  dominant-baseline="middle">2.0.0</text><g transform="translate(255.0,645.5)"><path  style="fill:none;stroke:#000000;stroke-width:1px;stroke-linecap:butt;stroke-linejoin:miter;stroke-opacity:1" d="M 10.575434,0.49998599 V 5.7056524 h 5.373582 M 0.49998599,0.49998599 V 19.979214 H 15.949016 V 5.7056524 L 10.575434,0.49998599 Z"/><path style="fill:none;stroke:#000000;stroke-width:0.75;stroke-linecap:butt;stroke-linejoin:miter;stroke-dasharray:none;stroke-opacity:1" d="M 4.0940127,7.4103913 H 12.373525 V 15.683 h -2.084446 l 0,-6.1912947 H 8.224501 V 15.683 H 4.0940127 Z"/></g><text x="200.0" y="650.5" text-anchor="middle" font-size="10.0" font-family="Helvetica"  font-style="italic"  dominant-baseline="middle">&lt;&lt;NPM Package&gt;&gt;</text><rect x="23.0" y="490.5" height="75.0" width="160.0" fill="#000000" fill-opacity="0.3984375" /><rect x="20.0" y="487.5" height="75.0" width="160.0" fill="#ffffff" stroke="#000000" stroke-width="1"  /><text x="100.0" y="529.5" text-anchor="middle" font-size="10.0" font-family="Helvetica"  font-weight="bold"  dominant-baseline="middle">color-string</text><text x="100.0" y="540.5" text-anchor="middle" font-size="10.0" font-family="Helvetica"  dominant-baseline="middle">2.0.1</text><g transform="translate(155.0,495.5)"><path  style="fill:none;stroke:#000000;stroke-width:1px;stroke-linecap:butt;stroke-linejoin:miter;stroke-opacity:1" d="M 10.575434,0.49998599 V 5.7056524 h 5.373582 M 0.49998599,0.49998599 V 19.979214 H 15.949016 V 5.7056524 L 10.575434,0.49998599 Z"/><path style="fill:none;stroke:#000000;stroke-width:0.75;stroke-linecap:butt;stroke-linejoin:miter;stroke-dasharray:none;stroke-opacity:1" d="M 4.0940127,7.4103913 H 12.373525 V 15.683 h -2.084446 l 0,-6.1912947 H 8.224501 V 15.683 H 4.0940127 Z"/></g><text x="100.0" y="500.5" text-anchor="middle" font-size="10.0" font-family="Helvetica"  font-style="italic"  dominant-baseline="middle">&lt;&lt;NPM Package&gt;&gt;</text><rect x="223.0" y="490.5" height="75.0" width="160.0" fill="#000000" fill-opacity="0.3984375" /><rect x="220.0" y="487.5" height="75.0" width="160.0" fill="#ffffff" stroke="#000000" stroke-width="1"  /><text x="300.0" y="529.5" text-anchor="middle" font-size="10.0" font-family="Helvetica"  font-weight="bold"  dominant-baseline="middle">color-convert</text><text x="300.0" y="540.5" text-anchor="middle" font-size="10.0" font-family="Helvetica"  dominant-baseline="middle">3.0.1</text><g transform="translate(355.0,495.5)"><path  style="fill:none;stroke:#000000;stroke-width:1px;stroke-linecap:butt;stroke-linejoin:miter;stroke-opacity:1" d="M 10.575434,0.49998599 V 5.7056524 h 5.373582 M 0.49998599,0.49998599 V 19.979214 H 15.949016 V 5.7056524 L 10.575434,0.49998599 Z"/><path style="fill:none;stroke:#000000;stroke-width:0.75;stroke-linecap:butt;stroke-linejoin:miter;stroke-dasharray:none;stroke-opacity:1" d="M 4.0940127,7.4103913 H 12.373525 V 15.683 h -2.084446 l 0,-6.1912947 H 8.224501 V 15.683 H 4.0940127 Z"/></g><text x="300.0" y="500.5" text-anchor="middle" font-size="10.0" font-family="Helvetica"  font-style="italic"  dominant-baseline="middle">&lt;&lt;NPM Package&gt;&gt;</text><rect x="23.0" y="340.5" height="75.0" width="160.0" fill="#000000" fill-opacity="0.3984375" /><rect x="20.0" y="337.5" height="75.0" width="160.0" fill="#ffffff" stroke="#000000" stroke-width="1"  /><text x="100.0" y="379.5" text-anchor="middle" font-size="10.0" font-family="Helvetica"  font-weight="bold"  dominant-baseline="middle">color</text><text x="100.0" y="390.5" text-anchor="middle" font-size="10.0" font-family="Helvetica"  dominant-baseline="middle">5.0.0</text><g transform="translate(155.0,345.5)"><path  style="fill:none;stroke:#000000;stroke-width:1px;stroke-linecap:butt;stroke-linejoin:miter;stroke-opacity:1" d="M 10.575434,0.49998599 V 5.7056524 h 5.373582 M 0.49998599,0.49998599 V 19.979214 H 15.949016 V 5.7056524 L 10.575434,0.49998599 Z"/><path style="fill:none;stroke:#000000;stroke-width:0.75;stroke-linecap:butt;stroke-linejoin:miter;stroke-dasharray:none;stroke-opacity:1" d="M 4.0940127,7.4103913 H 12.373525 V 15.683 h -2.084446 l 0,-6.1912947 H 8.224501 V 15.683 H 4.0940127 Z"/></g><text x="100.0" y="350.5" text-anchor="middle" font-size="10.0" font-family="Helvetica"  font-style="italic"  dominant-baseline="middle">&lt;&lt;NPM Package&gt;&gt;</text><rect x="123.0" y="190.5" height="75.0" width="160.0" fill="#000000" fill-opacity="0.3984375" /><rect x="120.0" y="187.5" height="75.0" width="160.0" fill="#ffffff" stroke="#000000" stroke-width="1"  /><text x="200.0" y="229.5" text-anchor="middle" font-size="10.0" font-family="Helvetica"  font-weight="bold"  dominant-baseline="middle">electric-thing-blorf</text><text x="200.0" y="240.5" text-anchor="middle" font-size="10.0" font-family="Helvetica"  dominant-baseline="middle">1.0.0</text><g transform="translate(255.0,195.5)"><path  style="fill:none;stroke:#000000;stroke-width:1px;stroke-linecap:butt;stroke-linejoin:miter;stroke-opacity:1" d="M 10.575434,0.49998599 V 5.7056524 h 5.373582 M 0.49998599,0.49998599 V 19.979214 H 15.949016 V 5.7056524 L 10.575434,0.49998599 Z"/><path style="fill:none;stroke:#000000;stroke-width:0.75;stroke-linecap:butt;stroke-linejoin:miter;stroke-dasharray:none;stroke-opacity:1" d="M 4.0940127,7.4103913 H 12.373525 V 15.683 h -2.084446 l 0,-6.1912947 H 8.224501 V 15.683 H 4.0940127 Z"/></g><text x="200.0" y="200.5" text-anchor="middle" font-size="10.0" font-family="Helvetica"  font-style="italic"  dominant-baseline="middle">&lt;&lt;NPM Package&gt;&gt;</text><marker style="overflow:visible" id="ArrowWide-1014452711" refX="0" refY="0" orient="auto-start-reverse" markerWidth="1" markerHeight="1" viewBox="0 0 1 1" preserveAspectRatio="xMidYMid"><path style="fill:none;stroke:context-stroke;stroke-width:1;stroke-linecap:butt" d="M 5,-5 0,0 5,5" transform="rotate(180,0.125,0)" /></marker><path d="M 125.0 562.5 L 175.0 637.5 " stroke-width="1.0" stroke="#404040" fill="none" stroke-dasharray="8 5" marker-end="url(#ArrowWide-1014452711" /><marker style="overflow:visible" id="ArrowWide--226734683" refX="0" refY="0" orient="auto-start-reverse" markerWidth="1" markerHeight="1" viewBox="0 0 1 1" preserveAspectRatio="xMidYMid"><path style="fill:none;stroke:context-stroke;stroke-width:1;stroke-linecap:butt" d="M 5,-5 0,0 5,5" transform="rotate(180,0.125,0)" /></marker><path d="M 275.0 562.5 L 225.0 637.5 " stroke-width="1.0" stroke="#404040" fill="none" stroke-dasharray="8 5" marker-end="url(#ArrowWide--226734683" /><marker style="overflow:visible" id="ArrowWide--2126128693" refX="0" refY="0" orient="auto-start-reverse" markerWidth="1" markerHeight="1" viewBox="0 0 1 1" preserveAspectRatio="xMidYMid"><path style="fill:none;stroke:context-stroke;stroke-width:1;stroke-linecap:butt" d="M 5,-5 0,0 5,5" transform="rotate(180,0.125,0)" /></marker><path d="M 100.0 412.5 L 100.0 487.5 " stroke-width="1.0" stroke="#404040" fill="none" stroke-dasharray="8 5" marker-end="url(#ArrowWide--2126128693" /><marker style="overflow:visible" id="ArrowWide-106986996" refX="0" refY="0" orient="auto-start-reverse" markerWidth="1" markerHeight="1" viewBox="0 0 1 1" preserveAspectRatio="xMidYMid"><path style="fill:none;stroke:context-stroke;stroke-width:1;stroke-linecap:butt" d="M 5,-5 0,0 5,5" transform="rotate(180,0.125,0)" /></marker><path d="M 150.0 412.5 L 250.0 487.5 " stroke-width="1.0" stroke="#404040" fill="none" stroke-dasharray="8 5" marker-end="url(#ArrowWide-106986996" /><marker style="overflow:visible" id="ArrowWide-753748013" refX="0" refY="0" orient="auto-start-reverse" markerWidth="1" markerHeight="1" viewBox="0 0 1 1" preserveAspectRatio="xMidYMid"><path style="fill:none;stroke:context-stroke;stroke-width:1;stroke-linecap:butt" d="M 5,-5 0,0 5,5" transform="rotate(180,0.125,0)" /></marker><path d="M 175.0 262.5 L 125.0 337.5 " stroke-width="1.0" stroke="#404040" fill="none" stroke-dasharray="8 5" marker-end="url(#ArrowWide-753748013" /><marker style="overflow:visible" id="ArrowWide--1394470652" refX="0" refY="0" orient="auto-start-reverse" markerWidth="1" markerHeight="1" viewBox="0 0 1 1" preserveAspectRatio="xMidYMid"><path style="fill:none;stroke:context-stroke;stroke-width:1;stroke-linecap:butt" d="M 5,-5 0,0 5,5" transform="rotate(180,0.125,0)" /></marker><path d="M 233.33333333333334 262.5 L 300.0 337.5 L 300.0 412.5 L 300.0 487.5 " stroke-width="1.0" stroke="#404040" fill="none" stroke-dasharray="8 5" marker-end="url(#ArrowWide--1394470652" /></g></g></svg>